<?xml version="1.0" encoding="utf-8" standalone="no"?>
<!DOCTYPE svg PUBLIC "-//W3C//DTD SVG 1.1//EN"
  "http://www.w3.org/Graphics/SVG/1.1/DTD/svg11.dtd">
<svg xmlns:xlink="http://www.w3.org/1999/xlink" width="1152pt" height="648pt" viewBox="0 0 1152 648" xmlns="http://www.w3.org/2000/svg" version="1.1">
 <metadata>
  <rdf:RDF xmlns:dc="http://purl.org/dc/elements/1.1/" xmlns:cc="http://creativecommons.org/ns#" xmlns:rdf="http://www.w3.org/1999/02/22-rdf-syntax-ns#">
   <cc:Work>
    <dc:type rdf:resource="http://purl.org/dc/dcmitype/StillImage"/>
    <dc:date>2025-07-24T18:21:12.429652</dc:date>
    <dc:format>image/svg+xml</dc:format>
    <dc:creator>
     <cc:Agent>
      <dc:title>Matplotlib v3.10.3, https://matplotlib.org/</dc:title>
     </cc:Agent>
    </dc:creator>
   </cc:Work>
  </rdf:RDF>
 </metadata>
 <defs>
  <style type="text/css">*{stroke-linejoin: round; stroke-linecap: butt}</style>
 </defs>
 <g id="figure_1">
  <g id="patch_1">
   <path d="M 0 648 
L 1152 648 
L 1152 0 
L 0 0 
z
" style="fill: #fafafa"/>
  </g>
  <g id="axes_1">
   <g id="patch_2">
    <path d="M 59.083365 594.894604 
L 1148.99976 594.894604 
L 1148.99976 3.00024 
L 59.083365 3.00024 
z
" style="fill: #fafafa"/>
   </g>
   <g id="matplotlib.axis_1">
    <g id="xtick_1">
     <g id="text_1">
      <!-- $\mathdefault{10^{1}}$ -->
      <g style="fill: #262626" transform="translate(98.312519 619.506635) scale(0.165 -0.165)">
       <defs>
        <path id="EquityBRegular-31" d="M 307 3533 
C 512 3482 826 3494 1126 3565 
L 1126 320 
L 454 224 
L 454 0 
L 2336 0 
L 2336 224 
L 1664 320 
L 1664 4026 
L 1376 4058 
C 1062 3859 704 3744 307 3738 
L 307 3533 
z
" transform="scale(0.015625)"/>
        <path id="EquityBRegular-30" d="M 288 1907 
C 288 538 934 -77 1722 -77 
C 2483 -77 3072 557 3072 1907 
C 3072 3379 2483 4083 1722 4083 
C 934 4083 288 3398 288 1907 
z
M 896 1914 
C 896 3232 1286 3840 1722 3840 
C 2125 3840 2470 3302 2470 1914 
C 2470 634 2125 166 1722 166 
C 1286 166 896 608 896 1914 
z
" transform="scale(0.015625)"/>
       </defs>
       <use xlink:href="#EquityBRegular-31" transform="translate(0 0.557813)"/>
       <use xlink:href="#EquityBRegular-30" transform="translate(40.699997 0.557813)"/>
       <use xlink:href="#EquityBRegular-31" transform="translate(94.001427 32.615625) scale(0.7)"/>
      </g>
     </g>
    </g>
    <g id="xtick_2">
     <g id="text_2">
      <!-- $\mathdefault{10^{2}}$ -->
      <g style="fill: #262626" transform="translate(221.589155 619.506635) scale(0.165 -0.165)">
       <defs>
        <path id="EquityBRegular-32" d="M 2176 2989 
C 2176 2054 896 736 230 205 
L 307 0 
L 2682 0 
L 3040 864 
L 2829 947 
L 2541 512 
L 1107 512 
L 1069 602 
C 1651 1120 2778 2400 2778 3155 
C 2778 3661 2438 4083 1786 4083 
C 1139 4083 640 3526 403 3162 
L 595 2957 
C 909 3341 1229 3629 1587 3629 
C 1958 3629 2176 3328 2176 2989 
z
" transform="scale(0.015625)"/>
       </defs>
       <use xlink:href="#EquityBRegular-31" transform="translate(0 0.284375)"/>
       <use xlink:href="#EquityBRegular-30" transform="translate(40.699997 0.284375)"/>
       <use xlink:href="#EquityBRegular-32" transform="translate(94.001427 32.342188) scale(0.7)"/>
      </g>
     </g>
    </g>
    <g id="xtick_3">
     <g id="text_3">
      <!-- $\mathdefault{10^{3}}$ -->
      <g style="fill: #262626" transform="translate(345.690791 619.506635) scale(0.165 -0.165)">
       <defs>
        <path id="EquityBRegular-33" d="M 2470 3366 
C 2470 3808 2118 4083 1709 4083 
C 1030 4083 557 3584 301 3232 
L 480 3040 
C 723 3379 1043 3661 1427 3661 
C 1722 3661 1914 3507 1914 3206 
C 1914 2765 1440 2330 806 2003 
L 954 1779 
L 1184 1907 
C 1389 2003 2061 1619 2061 960 
C 2061 454 1702 237 1427 237 
C 909 237 909 774 557 774 
C 333 774 224 627 224 493 
C 224 166 595 -77 1280 -77 
C 1875 -77 2598 333 2598 1178 
C 2598 1690 2182 2163 1741 2291 
L 1741 2355 
C 2042 2554 2470 2925 2470 3366 
z
" transform="scale(0.015625)"/>
       </defs>
       <use xlink:href="#EquityBRegular-31" transform="translate(0 0.284375)"/>
       <use xlink:href="#EquityBRegular-30" transform="translate(40.699997 0.284375)"/>
       <use xlink:href="#EquityBRegular-33" transform="translate(94.001427 32.342188) scale(0.7)"/>
      </g>
     </g>
    </g>
    <g id="xtick_4">
     <g id="text_4">
      <!-- $\mathdefault{10^{4}}$ -->
      <g style="fill: #262626" transform="translate(469.297427 619.506635) scale(0.165 -0.165)">
       <defs>
        <path id="EquityBRegular-34" d="M 2214 4134 
L 237 1414 
L 339 1178 
L 1965 1178 
L 1965 0 
L 2470 0 
L 2470 1184 
L 2982 1184 
L 2982 1574 
L 2470 1574 
L 2470 4026 
L 2214 4134 
z
M 1965 3162 
L 1965 1574 
L 781 1574 
L 749 1638 
L 1894 3200 
L 1965 3162 
z
" transform="scale(0.015625)"/>
       </defs>
       <use xlink:href="#EquityBRegular-31" transform="translate(0 0.726562)"/>
       <use xlink:href="#EquityBRegular-30" transform="translate(40.699997 0.726562)"/>
       <use xlink:href="#EquityBRegular-34" transform="translate(94.001427 32.784375) scale(0.7)"/>
      </g>
     </g>
    </g>
    <g id="xtick_5">
     <g id="text_5">
      <!-- $\mathdefault{10^{5}}$ -->
      <g style="fill: #262626" transform="translate(593.399063 619.506635) scale(0.165 -0.165)">
       <defs>
        <path id="EquityBRegular-35" d="M 506 2189 
L 621 2074 
C 678 2086 806 2144 1088 2144 
C 1690 2144 2112 1709 2112 1158 
C 2112 563 1818 320 1414 320 
C 928 320 883 621 525 621 
C 320 621 224 480 224 326 
C 224 83 544 -77 1018 -77 
C 1914 -77 2605 506 2605 1395 
C 2605 2208 1939 2650 1318 2650 
C 1126 2650 1005 2618 922 2579 
L 858 2643 
L 941 3494 
L 2502 3494 
L 2637 4256 
L 2419 4256 
L 2253 4006 
L 685 4006 
L 506 2189 
z
" transform="scale(0.015625)"/>
       </defs>
       <use xlink:href="#EquityBRegular-31" transform="translate(0 0.392188)"/>
       <use xlink:href="#EquityBRegular-30" transform="translate(40.699997 0.392188)"/>
       <use xlink:href="#EquityBRegular-35" transform="translate(94.001427 32.45) scale(0.7)"/>
      </g>
     </g>
    </g>
    <g id="xtick_6">
     <g id="text_6">
      <!-- $\mathdefault{10^{6}}$ -->
      <g style="fill: #262626" transform="translate(717.088198 619.506635) scale(0.165 -0.165)">
       <defs>
        <path id="EquityBRegular-36" d="M 973 2355 
C 1133 3226 1741 3750 2445 4102 
L 2381 4294 
C 1082 3859 301 2733 301 1587 
C 301 499 838 -77 1542 -77 
C 2515 -77 2867 691 2867 1325 
C 2867 2202 2285 2547 1843 2547 
C 1523 2547 1242 2438 1075 2304 
L 973 2355 
z
M 934 1811 
C 1088 2106 1344 2246 1632 2246 
C 1978 2246 2278 1971 2278 1350 
C 2278 666 2022 205 1568 205 
C 1190 205 890 621 890 1248 
C 890 1440 902 1664 934 1811 
z
" transform="scale(0.015625)"/>
       </defs>
       <use xlink:href="#EquityBRegular-31" transform="translate(0 0.976562)"/>
       <use xlink:href="#EquityBRegular-30" transform="translate(40.699997 0.976562)"/>
       <use xlink:href="#EquityBRegular-36" transform="translate(94.001427 33.034375) scale(0.7)"/>
      </g>
     </g>
    </g>
    <g id="xtick_7">
     <g id="text_7">
      <!-- $\mathdefault{10^{7}}$ -->
      <g style="fill: #262626" transform="translate(841.189834 619.506635) scale(0.165 -0.165)">
       <defs>
        <path id="EquityBRegular-37" d="M 2637 4006 
L 448 4006 
L 173 3027 
L 429 3027 
L 614 3494 
L 2246 3494 
L 2291 3405 
C 1773 2560 1094 1331 691 166 
C 634 0 781 -77 954 -77 
C 1203 -77 1306 32 1338 160 
C 1587 1216 2240 2758 2758 3840 
L 2637 4006 
z
" transform="scale(0.015625)"/>
       </defs>
       <use xlink:href="#EquityBRegular-31" transform="translate(0 0.126563)"/>
       <use xlink:href="#EquityBRegular-30" transform="translate(40.699997 0.126563)"/>
       <use xlink:href="#EquityBRegular-37" transform="translate(94.001427 32.184375) scale(0.7)"/>
      </g>
     </g>
    </g>
    <g id="xtick_8">
     <g id="text_8">
      <!-- $\mathdefault{10^{8}}$ -->
      <g style="fill: #262626" transform="translate(964.71397 619.506635) scale(0.165 -0.165)">
       <defs>
        <path id="EquityBRegular-38" d="M 365 902 
C 365 301 883 -77 1587 -77 
C 2355 -77 2861 371 2861 1082 
C 2861 1645 2477 1914 2067 2131 
L 2067 2182 
C 2528 2483 2778 2771 2778 3168 
C 2778 3706 2291 4083 1670 4083 
C 934 4083 486 3558 486 2989 
C 486 2611 749 2240 1158 2035 
L 1158 1978 
C 755 1760 365 1478 365 902 
z
M 819 890 
C 819 1331 1107 1677 1498 1856 
C 1990 1613 2381 1370 2381 928 
C 2381 493 2067 198 1587 198 
C 1043 198 819 512 819 890 
z
M 960 3194 
C 960 3507 1203 3808 1626 3808 
C 2010 3808 2291 3558 2291 3149 
C 2291 2778 2112 2522 1760 2298 
C 1293 2502 960 2758 960 3194 
z
" transform="scale(0.015625)"/>
       </defs>
       <use xlink:href="#EquityBRegular-31" transform="translate(0 0.284375)"/>
       <use xlink:href="#EquityBRegular-30" transform="translate(40.699997 0.284375)"/>
       <use xlink:href="#EquityBRegular-38" transform="translate(94.001427 32.342188) scale(0.7)"/>
      </g>
     </g>
    </g>
    <g id="xtick_9">
     <g id="text_9">
      <!-- $\mathdefault{10^{9}}$ -->
      <g style="fill: #262626" transform="translate(1088.650606 619.506635) scale(0.165 -0.165)">
       <defs>
        <path id="EquityBRegular-39" d="M 2163 1606 
C 2061 704 1363 154 589 -32 
L 557 -256 
C 1926 -90 2803 1075 2803 2419 
C 2803 3450 2272 4083 1530 4083 
C 928 4083 237 3597 237 2682 
C 237 1837 787 1395 1357 1395 
C 1670 1395 1894 1523 2061 1658 
L 2163 1606 
z
M 2170 2150 
C 1997 1869 1811 1690 1504 1690 
C 1101 1690 832 1958 832 2720 
C 832 3450 1082 3821 1504 3821 
C 1997 3821 2240 3411 2240 2822 
C 2240 2522 2208 2317 2170 2150 
z
" transform="scale(0.015625)"/>
       </defs>
       <use xlink:href="#EquityBRegular-31" transform="translate(0 0.284375)"/>
       <use xlink:href="#EquityBRegular-30" transform="translate(40.699997 0.284375)"/>
       <use xlink:href="#EquityBRegular-39" transform="translate(94.001427 32.342188) scale(0.7)"/>
      </g>
     </g>
    </g>
    <g id="xtick_10"/>
    <g id="xtick_11"/>
    <g id="xtick_12"/>
    <g id="xtick_13"/>
    <g id="xtick_14"/>
    <g id="xtick_15"/>
    <g id="xtick_16"/>
    <g id="xtick_17"/>
    <g id="xtick_18"/>
    <g id="xtick_19"/>
    <g id="xtick_20"/>
    <g id="xtick_21"/>
    <g id="xtick_22"/>
    <g id="xtick_23"/>
    <g id="xtick_24"/>
    <g id="xtick_25"/>
    <g id="xtick_26"/>
    <g id="xtick_27"/>
    <g id="xtick_28"/>
    <g id="xtick_29"/>
    <g id="xtick_30"/>
    <g id="xtick_31"/>
    <g id="xtick_32"/>
    <g id="xtick_33"/>
    <g id="xtick_34"/>
    <g id="xtick_35"/>
    <g id="xtick_36"/>
    <g id="xtick_37"/>
    <g id="xtick_38"/>
    <g id="xtick_39"/>
    <g id="xtick_40"/>
    <g id="xtick_41"/>
    <g id="xtick_42"/>
    <g id="xtick_43"/>
    <g id="xtick_44"/>
    <g id="xtick_45"/>
    <g id="xtick_46"/>
    <g id="xtick_47"/>
    <g id="xtick_48"/>
    <g id="xtick_49"/>
    <g id="xtick_50"/>
    <g id="xtick_51"/>
    <g id="xtick_52"/>
    <g id="xtick_53"/>
    <g id="xtick_54"/>
    <g id="xtick_55"/>
    <g id="xtick_56"/>
    <g id="xtick_57"/>
    <g id="xtick_58"/>
    <g id="xtick_59"/>
    <g id="xtick_60"/>
    <g id="xtick_61"/>
    <g id="xtick_62"/>
    <g id="xtick_63"/>
    <g id="xtick_64"/>
    <g id="xtick_65"/>
    <g id="xtick_66"/>
    <g id="xtick_67"/>
    <g id="xtick_68"/>
    <g id="xtick_69"/>
    <g id="xtick_70"/>
    <g id="xtick_71"/>
    <g id="xtick_72"/>
    <g id="xtick_73"/>
    <g id="xtick_74"/>
    <g id="xtick_75"/>
    <g id="xtick_76"/>
    <g id="xtick_77"/>
    <g id="xtick_78"/>
    <g id="xtick_79"/>
    <g id="xtick_80"/>
    <g id="text_10">
     <!-- # 32-bit Floats -->
     <g style="fill: #262626" transform="translate(551.886562 640.67976) scale(0.18 -0.18)">
      <defs>
       <path id="EquityBRegular-23" d="M 1856 4390 
L 1504 4390 
L 1222 3027 
L 512 3027 
L 512 2586 
L 1133 2586 
L 883 1395 
L 192 1395 
L 192 954 
L 794 954 
L 480 -557 
L 832 -557 
L 1146 954 
L 1850 954 
L 1536 -557 
L 1888 -557 
L 2202 954 
L 2925 954 
L 2925 1395 
L 2291 1395 
L 2541 2586 
L 3245 2586 
L 3245 3027 
L 2630 3027 
L 2912 4390 
L 2560 4390 
L 2278 3027 
L 1574 3027 
L 1856 4390 
z
M 1235 1395 
L 1485 2586 
L 2189 2586 
L 1939 1395 
L 1235 1395 
z
" transform="scale(0.015625)"/>
       <path id="EquityBRegular-20" transform="scale(0.015625)"/>
       <path id="EquityBRegular-2d" d="M 205 1760 
L 205 1331 
L 1805 1331 
L 1805 1760 
L 205 1760 
z
" transform="scale(0.015625)"/>
       <path id="EquityBRegular-62" d="M 966 2349 
C 1094 2464 1325 2598 1581 2598 
C 1990 2598 2330 2208 2330 1472 
C 2330 678 2022 192 1478 192 
C 1203 192 966 333 966 634 
L 966 2349 
z
M 448 570 
C 525 192 934 -77 1446 -77 
C 2144 -77 2854 416 2854 1600 
C 2854 2611 2310 3014 1856 3014 
C 1581 3014 1312 2880 1018 2656 
L 966 2694 
L 966 4698 
L 813 4698 
L 32 4429 
L 32 4294 
L 448 4109 
L 448 570 
z
" transform="scale(0.015625)"/>
       <path id="EquityBRegular-69" d="M 1075 3014 
L 922 3014 
L 141 2746 
L 141 2611 
L 557 2432 
L 557 288 
L 173 192 
L 173 0 
L 1459 0 
L 1459 192 
L 1075 288 
L 1075 3014 
z
M 435 4262 
C 435 4064 614 3885 813 3885 
C 1018 3885 1197 4064 1197 4262 
C 1197 4467 1018 4646 813 4646 
C 614 4646 435 4467 435 4262 
z
" transform="scale(0.015625)"/>
       <path id="EquityBRegular-74" d="M 531 2598 
L 531 710 
C 531 198 723 -77 1190 -77 
C 1562 -77 1850 109 1971 230 
L 1888 397 
C 1722 301 1530 269 1395 269 
C 1184 269 1050 403 1050 691 
L 1050 2598 
L 1888 2598 
L 1888 2931 
L 1050 2931 
L 1050 3654 
L 851 3654 
L 512 3066 
L 141 2835 
L 141 2598 
L 531 2598 
z
" transform="scale(0.015625)"/>
       <path id="EquityBRegular-46" d="M 173 4518 
L 173 4294 
L 749 4198 
L 749 320 
L 173 224 
L 173 0 
L 1965 0 
L 1965 224 
L 1363 320 
L 1363 2221 
L 2496 2221 
L 2701 1491 
L 2925 1491 
L 2925 3219 
L 2701 3219 
L 2496 2534 
L 1363 2534 
L 1363 4243 
L 3008 4243 
L 3475 3514 
L 3725 3514 
L 3622 4518 
L 173 4518 
z
" transform="scale(0.015625)"/>
       <path id="EquityBRegular-6c" d="M 1075 4698 
L 922 4698 
L 141 4429 
L 141 4294 
L 557 4109 
L 557 288 
L 173 192 
L 173 0 
L 1459 0 
L 1459 192 
L 1075 288 
L 1075 4698 
z
" transform="scale(0.015625)"/>
       <path id="EquityBRegular-6f" d="M 218 1466 
C 218 474 832 -77 1581 -77 
C 2330 -77 2938 442 2938 1466 
C 2938 2432 2330 3014 1581 3014 
C 832 3014 218 2419 218 1466 
z
M 819 1472 
C 819 2406 1178 2746 1581 2746 
C 1984 2746 2342 2419 2342 1472 
C 2342 448 1984 192 1581 192 
C 1178 192 819 550 819 1472 
z
" transform="scale(0.015625)"/>
       <path id="EquityBRegular-61" d="M 1677 883 
C 1677 582 1338 352 1094 352 
C 909 352 768 557 768 794 
C 768 1043 986 1216 1126 1274 
L 1677 1523 
L 1677 883 
z
M 2042 -58 
C 2234 -58 2534 77 2688 525 
L 2560 576 
C 2515 467 2419 339 2310 339 
C 2170 339 2144 474 2144 614 
L 2144 2246 
C 2144 2694 1901 3014 1440 3014 
C 1184 3014 666 2694 435 2534 
C 301 2419 256 2291 256 2150 
C 256 1965 371 1837 506 1837 
C 653 1837 787 1920 787 2086 
C 787 2214 755 2374 749 2451 
C 826 2566 1037 2656 1178 2656 
C 1491 2656 1670 2470 1670 2048 
L 1670 1779 
L 768 1389 
C 416 1242 262 960 262 678 
C 262 390 518 -77 845 -77 
C 1107 -77 1312 64 1581 346 
L 1645 346 
C 1664 83 1830 -58 2042 -58 
z
" transform="scale(0.015625)"/>
       <path id="EquityBRegular-73" d="M 301 0 
L 480 0 
L 576 83 
C 678 38 966 -77 1235 -77 
C 1754 -77 2208 224 2208 794 
C 2208 1267 1869 1498 1376 1722 
C 934 1926 704 2061 704 2323 
C 704 2586 922 2771 1190 2771 
C 1434 2771 1754 2573 1901 2048 
L 2086 2048 
L 2086 2963 
L 1946 2963 
L 1786 2886 
C 1658 2938 1446 3014 1171 3014 
C 570 3014 301 2573 301 2202 
C 301 1766 531 1504 1043 1286 
C 1606 1037 1722 890 1722 627 
C 1722 390 1530 154 1248 154 
C 851 154 614 486 512 960 
L 301 960 
L 301 0 
z
" transform="scale(0.015625)"/>
      </defs>
      <use xlink:href="#EquityBRegular-23"/>
      <use xlink:href="#EquityBRegular-20" transform="translate(53.699997 0)"/>
      <use xlink:href="#EquityBRegular-33" transform="translate(75.699982 0)"/>
      <use xlink:href="#EquityBRegular-32" transform="translate(120.999969 0)"/>
      <use xlink:href="#EquityBRegular-2d" transform="translate(171.399963 0)"/>
      <use xlink:href="#EquityBRegular-62" transform="translate(202.799957 0)"/>
      <use xlink:href="#EquityBRegular-69" transform="translate(250.799942 0)"/>
      <use xlink:href="#EquityBRegular-74" transform="translate(276.299927 0)"/>
      <use xlink:href="#EquityBRegular-20" transform="translate(308.299911 0)"/>
      <use xlink:href="#EquityBRegular-46" transform="translate(330.299896 0)"/>
      <use xlink:href="#EquityBRegular-6c" transform="translate(390.899887 0)"/>
      <use xlink:href="#EquityBRegular-6f" transform="translate(416.399872 0)"/>
      <use xlink:href="#EquityBRegular-61" transform="translate(465.69986 0)"/>
      <use xlink:href="#EquityBRegular-74" transform="translate(508.79985 0)"/>
      <use xlink:href="#EquityBRegular-73" transform="translate(540.799835 0)"/>
     </g>
    </g>
   </g>
   <g id="matplotlib.axis_2">
    <g id="ytick_1">
     <g id="text_11">
      <!-- $\mathdefault{10^{1}}$ -->
      <g style="fill: #262626" transform="translate(25.958365 559.861314) scale(0.165 -0.165)">
       <use xlink:href="#EquityBRegular-31" transform="translate(0 0.557813)"/>
       <use xlink:href="#EquityBRegular-30" transform="translate(40.699997 0.557813)"/>
       <use xlink:href="#EquityBRegular-31" transform="translate(94.001427 32.615625) scale(0.7)"/>
      </g>
     </g>
    </g>
    <g id="ytick_2">
     <g id="text_12">
      <!-- $\mathdefault{10^{2}}$ -->
      <g style="fill: #262626" transform="translate(24.803365 498.552779) scale(0.165 -0.165)">
       <use xlink:href="#EquityBRegular-31" transform="translate(0 0.284375)"/>
       <use xlink:href="#EquityBRegular-30" transform="translate(40.699997 0.284375)"/>
       <use xlink:href="#EquityBRegular-32" transform="translate(94.001427 32.342188) scale(0.7)"/>
      </g>
     </g>
    </g>
    <g id="ytick_3">
     <g id="text_13">
      <!-- $\mathdefault{10^{3}}$ -->
      <g style="fill: #262626" transform="translate(25.298365 437.244244) scale(0.165 -0.165)">
       <use xlink:href="#EquityBRegular-31" transform="translate(0 0.284375)"/>
       <use xlink:href="#EquityBRegular-30" transform="translate(40.699997 0.284375)"/>
       <use xlink:href="#EquityBRegular-33" transform="translate(94.001427 32.342188) scale(0.7)"/>
      </g>
     </g>
    </g>
    <g id="ytick_4">
     <g id="text_14">
      <!-- $\mathdefault{10^{4}}$ -->
      <g style="fill: #262626" transform="translate(24.803365 375.935708) scale(0.165 -0.165)">
       <use xlink:href="#EquityBRegular-31" transform="translate(0 0.726562)"/>
       <use xlink:href="#EquityBRegular-30" transform="translate(40.699997 0.726562)"/>
       <use xlink:href="#EquityBRegular-34" transform="translate(94.001427 32.784375) scale(0.7)"/>
      </g>
     </g>
    </g>
    <g id="ytick_5">
     <g id="text_15">
      <!-- $\mathdefault{10^{5}}$ -->
      <g style="fill: #262626" transform="translate(25.298365 314.627173) scale(0.165 -0.165)">
       <use xlink:href="#EquityBRegular-31" transform="translate(0 0.392188)"/>
       <use xlink:href="#EquityBRegular-30" transform="translate(40.699997 0.392188)"/>
       <use xlink:href="#EquityBRegular-35" transform="translate(94.001427 32.45) scale(0.7)"/>
      </g>
     </g>
    </g>
    <g id="ytick_6">
     <g id="text_16">
      <!-- $\mathdefault{10^{6}}$ -->
      <g style="fill: #262626" transform="translate(24.968365 253.318638) scale(0.165 -0.165)">
       <use xlink:href="#EquityBRegular-31" transform="translate(0 0.976562)"/>
       <use xlink:href="#EquityBRegular-30" transform="translate(40.699997 0.976562)"/>
       <use xlink:href="#EquityBRegular-36" transform="translate(94.001427 33.034375) scale(0.7)"/>
      </g>
     </g>
    </g>
    <g id="ytick_7">
     <g id="text_17">
      <!-- $\mathdefault{10^{7}}$ -->
      <g style="fill: #262626" transform="translate(25.463365 192.010103) scale(0.165 -0.165)">
       <use xlink:href="#EquityBRegular-31" transform="translate(0 0.126563)"/>
       <use xlink:href="#EquityBRegular-30" transform="translate(40.699997 0.126563)"/>
       <use xlink:href="#EquityBRegular-37" transform="translate(94.001427 32.184375) scale(0.7)"/>
      </g>
     </g>
    </g>
    <g id="ytick_8">
     <g id="text_18">
      <!-- $\mathdefault{10^{8}}$ -->
      <g style="fill: #262626" transform="translate(24.803365 130.701568) scale(0.165 -0.165)">
       <use xlink:href="#EquityBRegular-31" transform="translate(0 0.284375)"/>
       <use xlink:href="#EquityBRegular-30" transform="translate(40.699997 0.284375)"/>
       <use xlink:href="#EquityBRegular-38" transform="translate(94.001427 32.342188) scale(0.7)"/>
      </g>
     </g>
    </g>
    <g id="ytick_9">
     <g id="text_19">
      <!-- $\mathdefault{10^{9}}$ -->
      <g style="fill: #262626" transform="translate(24.968365 69.393033) scale(0.165 -0.165)">
       <use xlink:href="#EquityBRegular-31" transform="translate(0 0.284375)"/>
       <use xlink:href="#EquityBRegular-30" transform="translate(40.699997 0.284375)"/>
       <use xlink:href="#EquityBRegular-39" transform="translate(94.001427 32.342188) scale(0.7)"/>
      </g>
     </g>
    </g>
    <g id="ytick_10"/>
    <g id="ytick_11"/>
    <g id="ytick_12"/>
    <g id="ytick_13"/>
    <g id="ytick_14"/>
    <g id="ytick_15"/>
    <g id="ytick_16"/>
    <g id="ytick_17"/>
    <g id="ytick_18"/>
    <g id="ytick_19"/>
    <g id="ytick_20"/>
    <g id="ytick_21"/>
    <g id="ytick_22"/>
    <g id="ytick_23"/>
    <g id="ytick_24"/>
    <g id="ytick_25"/>
    <g id="ytick_26"/>
    <g id="ytick_27"/>
    <g id="ytick_28"/>
    <g id="ytick_29"/>
    <g id="ytick_30"/>
    <g id="ytick_31"/>
    <g id="ytick_32"/>
    <g id="ytick_33"/>
    <g id="ytick_34"/>
    <g id="ytick_35"/>
    <g id="ytick_36"/>
    <g id="ytick_37"/>
    <g id="ytick_38"/>
    <g id="ytick_39"/>
    <g id="ytick_40"/>
    <g id="ytick_41"/>
    <g id="ytick_42"/>
    <g id="ytick_43"/>
    <g id="ytick_44"/>
    <g id="ytick_45"/>
    <g id="ytick_46"/>
    <g id="ytick_47"/>
    <g id="ytick_48"/>
    <g id="ytick_49"/>
    <g id="ytick_50"/>
    <g id="ytick_51"/>
    <g id="ytick_52"/>
    <g id="ytick_53"/>
    <g id="ytick_54"/>
    <g id="ytick_55"/>
    <g id="ytick_56"/>
    <g id="ytick_57"/>
    <g id="ytick_58"/>
    <g id="ytick_59"/>
    <g id="ytick_60"/>
    <g id="ytick_61"/>
    <g id="ytick_62"/>
    <g id="ytick_63"/>
    <g id="ytick_64"/>
    <g id="ytick_65"/>
    <g id="ytick_66"/>
    <g id="ytick_67"/>
    <g id="ytick_68"/>
    <g id="ytick_69"/>
    <g id="ytick_70"/>
    <g id="ytick_71"/>
    <g id="ytick_72"/>
    <g id="ytick_73"/>
    <g id="ytick_74"/>
    <g id="ytick_75"/>
    <g id="ytick_76"/>
    <g id="ytick_77"/>
    <g id="ytick_78"/>
    <g id="ytick_79"/>
    <g id="ytick_80"/>
    <g id="ytick_81"/>
    <g id="ytick_82"/>
    <g id="ytick_83"/>
    <g id="ytick_84"/>
    <g id="ytick_85"/>
    <g id="ytick_86"/>
    <g id="ytick_87"/>
    <g id="ytick_88"/>
    <g id="text_20">
     <!-- Time (ns) -->
     <g style="fill: #262626" transform="translate(16.446802 335.272266) rotate(-90) scale(0.18 -0.18)">
      <defs>
       <path id="EquityBRegular-54" d="M 371 4518 
L 77 3290 
L 326 3290 
L 973 4243 
L 1971 4243 
L 1971 320 
L 1370 224 
L 1370 0 
L 3187 0 
L 3187 224 
L 2586 320 
L 2586 4243 
L 3584 4243 
L 4230 3290 
L 4480 3290 
L 4186 4518 
L 371 4518 
z
" transform="scale(0.015625)"/>
       <path id="EquityBRegular-6d" d="M 3168 0 
L 3168 192 
L 2784 288 
L 2784 2106 
C 2784 2195 2771 2285 2765 2368 
C 2938 2477 3194 2605 3398 2605 
C 3770 2605 3987 2419 3987 1862 
L 3987 288 
L 3603 192 
L 3603 0 
L 4890 0 
L 4890 192 
L 4506 288 
L 4506 2035 
C 4506 2714 4115 3014 3667 3014 
C 3309 3014 2995 2803 2675 2566 
C 2534 2874 2259 3014 1952 3014 
C 1677 3014 1434 2880 1133 2656 
L 1082 2694 
L 1043 3014 
L 890 3014 
L 128 2746 
L 128 2611 
L 544 2432 
L 544 288 
L 160 192 
L 160 0 
L 1446 0 
L 1446 192 
L 1062 288 
L 1062 2368 
C 1190 2483 1421 2605 1677 2605 
C 2054 2605 2266 2419 2266 1862 
L 2266 288 
L 1882 192 
L 1882 0 
L 3168 0 
z
" transform="scale(0.015625)"/>
       <path id="EquityBRegular-65" d="M 1466 2752 
C 1766 2752 1984 2566 1984 2259 
C 1984 2195 1978 2099 1952 2029 
L 774 2029 
C 858 2438 1075 2752 1466 2752 
z
M 742 1773 
L 2541 1773 
C 2605 1773 2611 1856 2611 1978 
C 2611 2406 2189 3014 1472 3014 
C 736 3014 218 2317 218 1440 
C 218 672 710 -77 1491 -77 
C 2131 -77 2483 410 2675 781 
L 2496 902 
C 2266 531 1984 378 1645 378 
C 1178 378 736 781 736 1594 
C 736 1651 736 1715 742 1773 
z
" transform="scale(0.015625)"/>
       <path id="EquityBRegular-28" d="M 2118 -1363 
C 1318 -602 966 499 966 1683 
C 966 2765 1312 3738 2118 4563 
L 1958 4781 
C 1101 3981 454 3034 454 1683 
C 454 224 1171 -806 1965 -1549 
L 2118 -1363 
z
" transform="scale(0.015625)"/>
       <path id="EquityBRegular-6e" d="M 3174 0 
L 3174 192 
L 2790 288 
L 2790 2035 
C 2790 2714 2400 3014 1952 3014 
C 1677 3014 1434 2880 1133 2656 
L 1082 2694 
L 1043 3014 
L 890 3014 
L 128 2746 
L 128 2611 
L 544 2432 
L 544 288 
L 160 192 
L 160 0 
L 1446 0 
L 1446 192 
L 1062 288 
L 1062 2368 
C 1190 2483 1421 2605 1677 2605 
C 2054 2605 2272 2419 2272 1862 
L 2272 288 
L 1888 192 
L 1888 0 
L 3174 0 
z
" transform="scale(0.015625)"/>
       <path id="EquityBRegular-29" d="M 134 -1363 
L 288 -1549 
C 1082 -806 1798 224 1798 1683 
C 1798 3034 1152 3981 294 4781 
L 134 4563 
C 941 3738 1286 2765 1286 1683 
C 1286 499 934 -602 134 -1363 
z
" transform="scale(0.015625)"/>
      </defs>
      <use xlink:href="#EquityBRegular-54"/>
      <use xlink:href="#EquityBRegular-69" transform="translate(71.199982 0)"/>
      <use xlink:href="#EquityBRegular-6d" transform="translate(96.699966 0)"/>
      <use xlink:href="#EquityBRegular-65" transform="translate(175.59996 0)"/>
      <use xlink:href="#EquityBRegular-20" transform="translate(220.399948 0)"/>
      <use xlink:href="#EquityBRegular-28" transform="translate(242.399933 0)"/>
      <use xlink:href="#EquityBRegular-6e" transform="translate(277.59993 0)"/>
      <use xlink:href="#EquityBRegular-73" transform="translate(329.699921 0)"/>
      <use xlink:href="#EquityBRegular-29" transform="translate(368.399918 0)"/>
     </g>
    </g>
   </g>
   <g id="FillBetweenPolyCollection_1">
    <defs>
     <path id="m81dd957cd7" d="M 108.625019 -80.136442 
L 108.625019 -80.009686 
L 232.479155 -175.265972 
L 356.333291 -248.733112 
L 480.187427 -313.036949 
L 604.041563 -374.373325 
L 727.895698 -435.687165 
L 851.749834 -496.974985 
L 975.60397 -558.278959 
L 1099.458106 -617.885765 
L 1099.458106 -618.095471 
L 1099.458106 -618.095471 
L 975.60397 -558.384714 
L 851.749834 -497.022535 
L 727.895698 -435.776441 
L 604.041563 -374.460424 
L 480.187427 -313.26136 
L 356.333291 -248.808926 
L 232.479155 -175.368834 
L 108.625019 -80.136442 
z
" style="stroke: #a6cee3; stroke-opacity: 0.2; stroke-width: 1.5"/>
    </defs>
    <g clip-path="url(#p81a88b6dec)">
     <use xlink:href="#m81dd957cd7" x="0" y="648" style="fill: #a6cee3; fill-opacity: 0.2; stroke: #a6cee3; stroke-opacity: 0.2; stroke-width: 1.5"/>
    </g>
   </g>
   <g id="FillBetweenPolyCollection_2">
    <defs>
     <path id="m20279fca45" d="M 108.625019 -314.859226 
L 108.625019 -312.896547 
L 232.479155 -319.061689 
L 356.333291 -332.995178 
L 480.187427 -344.711541 
L 604.041563 -356.716864 
L 727.895698 -381.208768 
L 851.749834 -429.80174 
L 975.60397 -489.289248 
L 1099.458106 -550.748376 
L 1099.458106 -551.005026 
L 1099.458106 -551.005026 
L 975.60397 -489.61685 
L 851.749834 -429.92066 
L 727.895698 -381.441807 
L 604.041563 -357.23376 
L 480.187427 -345.155376 
L 356.333291 -333.35941 
L 232.479155 -319.424444 
L 108.625019 -314.859226 
z
" style="stroke: #1f78b4; stroke-opacity: 0.2; stroke-width: 1.5"/>
    </defs>
    <g clip-path="url(#p81a88b6dec)">
     <use xlink:href="#m20279fca45" x="0" y="648" style="fill: #1f78b4; fill-opacity: 0.2; stroke: #1f78b4; stroke-opacity: 0.2; stroke-width: 1.5"/>
    </g>
   </g>
   <g id="FillBetweenPolyCollection_3">
    <defs>
     <path id="m927a4a68a7" d="M 108.625019 -87.22544 
L 108.625019 -87.034063 
L 232.479155 -123.14579 
L 356.333291 -192.788012 
L 480.187427 -257.429283 
L 604.041563 -319.093137 
L 727.895698 -380.419949 
L 851.749834 -441.684203 
L 975.60397 -503.139916 
L 1099.458106 -562.67464 
L 1099.458106 -562.86638 
L 1099.458106 -562.86638 
L 975.60397 -503.352686 
L 851.749834 -441.732741 
L 727.895698 -380.520176 
L 604.041563 -319.187937 
L 480.187427 -257.520051 
L 356.333291 -192.884357 
L 232.479155 -123.309083 
L 108.625019 -87.22544 
z
" style="stroke: #b2df8a; stroke-opacity: 0.2; stroke-width: 1.5"/>
    </defs>
    <g clip-path="url(#p81a88b6dec)">
     <use xlink:href="#m927a4a68a7" x="0" y="648" style="fill: #b2df8a; fill-opacity: 0.2; stroke: #b2df8a; stroke-opacity: 0.2; stroke-width: 1.5"/>
    </g>
   </g>
   <g id="FillBetweenPolyCollection_4">
    <defs>
     <path id="m91f41d336c" d="M 108.625019 -123.880261 
L 108.625019 -123.764438 
L 232.479155 -130.609673 
L 356.333291 -181.572586 
L 480.187427 -239.22594 
L 604.041563 -300.672724 
L 727.895698 -361.885797 
L 851.749834 -423.397964 
L 975.60397 -484.873514 
L 1099.458106 -545.682739 
L 1099.458106 -545.873974 
L 1099.458106 -545.873974 
L 975.60397 -485.114954 
L 851.749834 -423.576563 
L 727.895698 -361.939735 
L 604.041563 -300.775758 
L 480.187427 -239.278771 
L 356.333291 -181.684616 
L 232.479155 -130.67588 
L 108.625019 -123.880261 
z
" style="stroke: #33a02c; stroke-opacity: 0.2; stroke-width: 1.5"/>
    </defs>
    <g clip-path="url(#p81a88b6dec)">
     <use xlink:href="#m91f41d336c" x="0" y="648" style="fill: #33a02c; fill-opacity: 0.2; stroke: #33a02c; stroke-opacity: 0.2; stroke-width: 1.5"/>
    </g>
   </g>
   <g id="FillBetweenPolyCollection_5">
    <defs>
     <path id="m8bccc486b6" d="M 108.625019 -147.808144 
L 108.625019 -147.679662 
L 232.479155 -151.500786 
L 356.333291 -182.088931 
L 480.187427 -225.494278 
L 604.041563 -283.489966 
L 727.895698 -344.681283 
L 851.749834 -406.339804 
L 975.60397 -467.513612 
L 1099.458106 -528.769432 
L 1099.458106 -528.983166 
L 1099.458106 -528.983166 
L 975.60397 -467.617949 
L 851.749834 -406.555862 
L 727.895698 -344.718247 
L 604.041563 -283.620042 
L 480.187427 -225.574509 
L 356.333291 -182.359847 
L 232.479155 -151.567083 
L 108.625019 -147.808144 
z
" style="stroke: #fb9a99; stroke-opacity: 0.2; stroke-width: 1.5"/>
    </defs>
    <g clip-path="url(#p81a88b6dec)">
     <use xlink:href="#m8bccc486b6" x="0" y="648" style="fill: #fb9a99; fill-opacity: 0.2; stroke: #fb9a99; stroke-opacity: 0.2; stroke-width: 1.5"/>
    </g>
   </g>
   <g id="FillBetweenPolyCollection_6">
    <defs>
     <path id="m7d655fbc79" d="M 108.625019 -171.779151 
L 108.625019 -171.631553 
L 232.479155 -188.530386 
L 356.333291 -198.629273 
L 480.187427 -224.056061 
L 604.041563 -278.373469 
L 727.895698 -338.858429 
L 851.749834 -400.285583 
L 975.60397 -461.587884 
L 1099.458106 -523.033919 
L 1099.458106 -523.246431 
L 1099.458106 -523.246431 
L 975.60397 -461.705654 
L 851.749834 -400.370868 
L 727.895698 -338.934626 
L 604.041563 -278.451113 
L 480.187427 -224.105955 
L 356.333291 -198.706046 
L 232.479155 -188.692994 
L 108.625019 -171.779151 
z
" style="stroke: #e31a1c; stroke-opacity: 0.2; stroke-width: 1.5"/>
    </defs>
    <g clip-path="url(#p81a88b6dec)">
     <use xlink:href="#m7d655fbc79" x="0" y="648" style="fill: #e31a1c; fill-opacity: 0.2; stroke: #e31a1c; stroke-opacity: 0.2; stroke-width: 1.5"/>
    </g>
   </g>
   <g id="FillBetweenPolyCollection_7">
    <defs>
     <path id="mf8467179c1" d="M 108.625019 -109.078289 
L 108.625019 -108.990959 
L 232.479155 -314.044051 
L 356.333291 -321.683424 
L 480.187427 -336.410995 
L 604.041563 -347.0763 
L 727.895698 -359.82114 
L 851.749834 -387.322622 
L 975.60397 -436.466639 
L 1099.458106 -495.911023 
L 1099.458106 -496.636049 
L 1099.458106 -496.636049 
L 975.60397 -437.027415 
L 851.749834 -387.884005 
L 727.895698 -360.420735 
L 604.041563 -347.472965 
L 480.187427 -336.704968 
L 356.333291 -322.219804 
L 232.479155 -315.299316 
L 108.625019 -109.078289 
z
" style="stroke: #fdbf6f; stroke-opacity: 0.2; stroke-width: 1.5"/>
    </defs>
    <g clip-path="url(#p81a88b6dec)">
     <use xlink:href="#mf8467179c1" x="0" y="648" style="fill: #fdbf6f; fill-opacity: 0.2; stroke: #fdbf6f; stroke-opacity: 0.2; stroke-width: 1.5"/>
    </g>
   </g>
   <g id="FillBetweenPolyCollection_8">
    <defs>
     <path id="m8728208a7f" d="M 108.625019 -132.469371 
L 108.625019 -132.333054 
L 232.479155 -314.229335 
L 356.333291 -319.115589 
L 480.187427 -333.86337 
L 604.041563 -343.476322 
L 727.895698 -356.070568 
L 851.749834 -381.208675 
L 975.60397 -435.180303 
L 1099.458106 -493.924456 
L 1099.458106 -494.024548 
L 1099.458106 -494.024548 
L 975.60397 -435.396656 
L 851.749834 -381.544482 
L 727.895698 -356.729958 
L 604.041563 -344.248283 
L 480.187427 -334.360337 
L 356.333291 -319.397932 
L 232.479155 -314.620899 
L 108.625019 -132.469371 
z
" style="stroke: #ff7f00; stroke-opacity: 0.2; stroke-width: 1.5"/>
    </defs>
    <g clip-path="url(#p81a88b6dec)">
     <use xlink:href="#m8728208a7f" x="0" y="648" style="fill: #ff7f00; fill-opacity: 0.2; stroke: #ff7f00; stroke-opacity: 0.2; stroke-width: 1.5"/>
    </g>
   </g>
   <g id="FillBetweenPolyCollection_9">
    <defs>
     <path id="mdc277baba0" d="M 108.625019 -154.777669 
L 108.625019 -154.552691 
L 232.479155 -299.503925 
L 356.333291 -316.413048 
L 480.187427 -331.606251 
L 604.041563 -341.197269 
L 727.895698 -353.091265 
L 851.749834 -380.541409 
L 975.60397 -435.448137 
L 1099.458106 -493.936368 
L 1099.458106 -494.001953 
L 1099.458106 -494.001953 
L 975.60397 -435.733571 
L 851.749834 -380.92903 
L 727.895698 -353.789387 
L 604.041563 -341.977386 
L 480.187427 -332.24226 
L 356.333291 -316.967101 
L 232.479155 -299.820718 
L 108.625019 -154.777669 
z
" style="stroke: #cab2d6; stroke-opacity: 0.2; stroke-width: 1.5"/>
    </defs>
    <g clip-path="url(#p81a88b6dec)">
     <use xlink:href="#mdc277baba0" x="0" y="648" style="fill: #cab2d6; fill-opacity: 0.2; stroke: #cab2d6; stroke-opacity: 0.2; stroke-width: 1.5"/>
    </g>
   </g>
   <g id="FillBetweenPolyCollection_10">
    <defs>
     <path id="mb0ead791ff" d="M 108.625019 -187.186595 
L 108.625019 -187.102334 
L 232.479155 -194.734867 
L 356.333291 -316.87203 
L 480.187427 -329.241319 
L 604.041563 -340.920453 
L 727.895698 -352.133832 
L 851.749834 -381.578229 
L 975.60397 -437.593979 
L 1099.458106 -493.928609 
L 1099.458106 -494.050874 
L 1099.458106 -494.050874 
L 975.60397 -438.697996 
L 851.749834 -386.004228 
L 727.895698 -352.763405 
L 604.041563 -341.418889 
L 480.187427 -329.602196 
L 356.333291 -317.986068 
L 232.479155 -195.037365 
L 108.625019 -187.186595 
z
" style="stroke: #6a3d9a; stroke-opacity: 0.2; stroke-width: 1.5"/>
    </defs>
    <g clip-path="url(#p81a88b6dec)">
     <use xlink:href="#mb0ead791ff" x="0" y="648" style="fill: #6a3d9a; fill-opacity: 0.2; stroke: #6a3d9a; stroke-opacity: 0.2; stroke-width: 1.5"/>
    </g>
   </g>
   <g id="line2d_1">
    <path d="M 108.625019 567.9268 
L 232.479155 472.683841 
L 356.333291 399.231671 
L 480.187427 334.857448 
L 604.041563 273.586102 
L 727.895698 212.269177 
L 851.749834 151.00334 
L 975.60397 89.665352 
L 1099.458106 30.019353 
" clip-path="url(#p81a88b6dec)" style="fill: none; stroke: #a6cee3; stroke-width: 2.25; stroke-linecap: round"/>
    <defs>
     <path id="maa71798f11" d="M 0 4.5 
C 1.193414 4.5 2.338109 4.025852 3.181981 3.181981 
C 4.025852 2.338109 4.5 1.193414 4.5 0 
C 4.5 -1.193414 4.025852 -2.338109 3.181981 -3.181981 
C 2.338109 -4.025852 1.193414 -4.5 0 -4.5 
C -1.193414 -4.5 -2.338109 -4.025852 -3.181981 -3.181981 
C -4.025852 -2.338109 -4.5 -1.193414 -4.5 0 
C -4.5 1.193414 -4.025852 2.338109 -3.181981 3.181981 
C -2.338109 4.025852 -1.193414 4.5 0 4.5 
z
" style="stroke: #ffffff; stroke-width: 0.75"/>
    </defs>
    <g clip-path="url(#p81a88b6dec)">
     <use xlink:href="#maa71798f11" x="108.625019" y="567.9268" style="fill: #a6cee3; stroke: #ffffff; stroke-width: 0.75"/>
     <use xlink:href="#maa71798f11" x="232.479155" y="472.683841" style="fill: #a6cee3; stroke: #ffffff; stroke-width: 0.75"/>
     <use xlink:href="#maa71798f11" x="356.333291" y="399.231671" style="fill: #a6cee3; stroke: #ffffff; stroke-width: 0.75"/>
     <use xlink:href="#maa71798f11" x="480.187427" y="334.857448" style="fill: #a6cee3; stroke: #ffffff; stroke-width: 0.75"/>
     <use xlink:href="#maa71798f11" x="604.041563" y="273.586102" style="fill: #a6cee3; stroke: #ffffff; stroke-width: 0.75"/>
     <use xlink:href="#maa71798f11" x="727.895698" y="212.269177" style="fill: #a6cee3; stroke: #ffffff; stroke-width: 0.75"/>
     <use xlink:href="#maa71798f11" x="851.749834" y="151.00334" style="fill: #a6cee3; stroke: #ffffff; stroke-width: 0.75"/>
     <use xlink:href="#maa71798f11" x="975.60397" y="89.665352" style="fill: #a6cee3; stroke: #ffffff; stroke-width: 0.75"/>
     <use xlink:href="#maa71798f11" x="1099.458106" y="30.019353" style="fill: #a6cee3; stroke: #ffffff; stroke-width: 0.75"/>
    </g>
   </g>
   <g id="line2d_2">
    <path d="M 108.625019 334.091686 
L 232.479155 328.7493 
L 356.333291 314.820352 
L 480.187427 303.068811 
L 604.041563 291.042613 
L 727.895698 266.685266 
L 851.749834 218.138685 
L 975.60397 158.561283 
L 1099.458106 97.134802 
" clip-path="url(#p81a88b6dec)" style="fill: none; stroke: #1f78b4; stroke-width: 2.25; stroke-linecap: round"/>
    <defs>
     <path id="m4f82fe1ad8" d="M 0 4.5 
C 1.193414 4.5 2.338109 4.025852 3.181981 3.181981 
C 4.025852 2.338109 4.5 1.193414 4.5 0 
C 4.5 -1.193414 4.025852 -2.338109 3.181981 -3.181981 
C 2.338109 -4.025852 1.193414 -4.5 0 -4.5 
C -1.193414 -4.5 -2.338109 -4.025852 -3.181981 -3.181981 
C -4.025852 -2.338109 -4.5 -1.193414 -4.5 0 
C -4.5 1.193414 -4.025852 2.338109 -3.181981 3.181981 
C -2.338109 4.025852 -1.193414 4.5 0 4.5 
z
" style="stroke: #ffffff; stroke-width: 0.75"/>
    </defs>
    <g clip-path="url(#p81a88b6dec)">
     <use xlink:href="#m4f82fe1ad8" x="108.625019" y="334.091686" style="fill: #1f78b4; stroke: #ffffff; stroke-width: 0.75"/>
     <use xlink:href="#m4f82fe1ad8" x="232.479155" y="328.7493" style="fill: #1f78b4; stroke: #ffffff; stroke-width: 0.75"/>
     <use xlink:href="#m4f82fe1ad8" x="356.333291" y="314.820352" style="fill: #1f78b4; stroke: #ffffff; stroke-width: 0.75"/>
     <use xlink:href="#m4f82fe1ad8" x="480.187427" y="303.068811" style="fill: #1f78b4; stroke: #ffffff; stroke-width: 0.75"/>
     <use xlink:href="#m4f82fe1ad8" x="604.041563" y="291.042613" style="fill: #1f78b4; stroke: #ffffff; stroke-width: 0.75"/>
     <use xlink:href="#m4f82fe1ad8" x="727.895698" y="266.685266" style="fill: #1f78b4; stroke: #ffffff; stroke-width: 0.75"/>
     <use xlink:href="#m4f82fe1ad8" x="851.749834" y="218.138685" style="fill: #1f78b4; stroke: #ffffff; stroke-width: 0.75"/>
     <use xlink:href="#m4f82fe1ad8" x="975.60397" y="158.561283" style="fill: #1f78b4; stroke: #ffffff; stroke-width: 0.75"/>
     <use xlink:href="#m4f82fe1ad8" x="1099.458106" y="97.134802" style="fill: #1f78b4; stroke: #ffffff; stroke-width: 0.75"/>
    </g>
   </g>
   <g id="line2d_3">
    <path d="M 108.625019 560.878981 
L 232.479155 524.774063 
L 356.333291 455.162677 
L 480.187427 390.528351 
L 604.041563 328.864733 
L 727.895698 267.532013 
L 851.749834 206.292759 
L 975.60397 144.768586 
L 1099.458106 85.232044 
" clip-path="url(#p81a88b6dec)" style="fill: none; stroke: #b2df8a; stroke-width: 2.25; stroke-linecap: round"/>
    <defs>
     <path id="m9abaa9a00d" d="M 0 4.5 
C 1.193414 4.5 2.338109 4.025852 3.181981 3.181981 
C 4.025852 2.338109 4.5 1.193414 4.5 0 
C 4.5 -1.193414 4.025852 -2.338109 3.181981 -3.181981 
C 2.338109 -4.025852 1.193414 -4.5 0 -4.5 
C -1.193414 -4.5 -2.338109 -4.025852 -3.181981 -3.181981 
C -4.025852 -2.338109 -4.5 -1.193414 -4.5 0 
C -4.5 1.193414 -4.025852 2.338109 -3.181981 3.181981 
C -2.338109 4.025852 -1.193414 4.5 0 4.5 
z
" style="stroke: #ffffff; stroke-width: 0.75"/>
    </defs>
    <g clip-path="url(#p81a88b6dec)">
     <use xlink:href="#m9abaa9a00d" x="108.625019" y="560.878981" style="fill: #b2df8a; stroke: #ffffff; stroke-width: 0.75"/>
     <use xlink:href="#m9abaa9a00d" x="232.479155" y="524.774063" style="fill: #b2df8a; stroke: #ffffff; stroke-width: 0.75"/>
     <use xlink:href="#m9abaa9a00d" x="356.333291" y="455.162677" style="fill: #b2df8a; stroke: #ffffff; stroke-width: 0.75"/>
     <use xlink:href="#m9abaa9a00d" x="480.187427" y="390.528351" style="fill: #b2df8a; stroke: #ffffff; stroke-width: 0.75"/>
     <use xlink:href="#m9abaa9a00d" x="604.041563" y="328.864733" style="fill: #b2df8a; stroke: #ffffff; stroke-width: 0.75"/>
     <use xlink:href="#m9abaa9a00d" x="727.895698" y="267.532013" style="fill: #b2df8a; stroke: #ffffff; stroke-width: 0.75"/>
     <use xlink:href="#m9abaa9a00d" x="851.749834" y="206.292759" style="fill: #b2df8a; stroke: #ffffff; stroke-width: 0.75"/>
     <use xlink:href="#m9abaa9a00d" x="975.60397" y="144.768586" style="fill: #b2df8a; stroke: #ffffff; stroke-width: 0.75"/>
     <use xlink:href="#m9abaa9a00d" x="1099.458106" y="85.232044" style="fill: #b2df8a; stroke: #ffffff; stroke-width: 0.75"/>
    </g>
   </g>
   <g id="line2d_4">
    <path d="M 108.625019 524.177572 
L 232.479155 517.360206 
L 356.333291 466.370583 
L 480.187427 408.74953 
L 604.041563 347.277198 
L 727.895698 286.088819 
L 851.749834 224.517241 
L 975.60397 163.015148 
L 1099.458106 102.229111 
" clip-path="url(#p81a88b6dec)" style="fill: none; stroke: #33a02c; stroke-width: 2.25; stroke-linecap: round"/>
    <defs>
     <path id="m45ffbfe875" d="M 0 4.5 
C 1.193414 4.5 2.338109 4.025852 3.181981 3.181981 
C 4.025852 2.338109 4.5 1.193414 4.5 0 
C 4.5 -1.193414 4.025852 -2.338109 3.181981 -3.181981 
C 2.338109 -4.025852 1.193414 -4.5 0 -4.5 
C -1.193414 -4.5 -2.338109 -4.025852 -3.181981 -3.181981 
C -4.025852 -2.338109 -4.5 -1.193414 -4.5 0 
C -4.5 1.193414 -4.025852 2.338109 -3.181981 3.181981 
C -2.338109 4.025852 -1.193414 4.5 0 4.5 
z
" style="stroke: #ffffff; stroke-width: 0.75"/>
    </defs>
    <g clip-path="url(#p81a88b6dec)">
     <use xlink:href="#m45ffbfe875" x="108.625019" y="524.177572" style="fill: #33a02c; stroke: #ffffff; stroke-width: 0.75"/>
     <use xlink:href="#m45ffbfe875" x="232.479155" y="517.360206" style="fill: #33a02c; stroke: #ffffff; stroke-width: 0.75"/>
     <use xlink:href="#m45ffbfe875" x="356.333291" y="466.370583" style="fill: #33a02c; stroke: #ffffff; stroke-width: 0.75"/>
     <use xlink:href="#m45ffbfe875" x="480.187427" y="408.74953" style="fill: #33a02c; stroke: #ffffff; stroke-width: 0.75"/>
     <use xlink:href="#m45ffbfe875" x="604.041563" y="347.277198" style="fill: #33a02c; stroke: #ffffff; stroke-width: 0.75"/>
     <use xlink:href="#m45ffbfe875" x="727.895698" y="286.088819" style="fill: #33a02c; stroke: #ffffff; stroke-width: 0.75"/>
     <use xlink:href="#m45ffbfe875" x="851.749834" y="224.517241" style="fill: #33a02c; stroke: #ffffff; stroke-width: 0.75"/>
     <use xlink:href="#m45ffbfe875" x="975.60397" y="163.015148" style="fill: #33a02c; stroke: #ffffff; stroke-width: 0.75"/>
     <use xlink:href="#m45ffbfe875" x="1099.458106" y="102.229111" style="fill: #33a02c; stroke: #ffffff; stroke-width: 0.75"/>
    </g>
   </g>
   <g id="line2d_5">
    <path d="M 108.625019 500.258744 
L 232.479155 496.471028 
L 356.333291 465.776178 
L 480.187427 422.468531 
L 604.041563 364.453496 
L 727.895698 303.30188 
L 851.749834 241.551531 
L 975.60397 180.43448 
L 1099.458106 119.134041 
" clip-path="url(#p81a88b6dec)" style="fill: none; stroke: #fb9a99; stroke-width: 2.25; stroke-linecap: round"/>
    <defs>
     <path id="m4dd2571fb1" d="M 0 4.5 
C 1.193414 4.5 2.338109 4.025852 3.181981 3.181981 
C 4.025852 2.338109 4.5 1.193414 4.5 0 
C 4.5 -1.193414 4.025852 -2.338109 3.181981 -3.181981 
C 2.338109 -4.025852 1.193414 -4.5 0 -4.5 
C -1.193414 -4.5 -2.338109 -4.025852 -3.181981 -3.181981 
C -4.025852 -2.338109 -4.5 -1.193414 -4.5 0 
C -4.5 1.193414 -4.025852 2.338109 -3.181981 3.181981 
C -2.338109 4.025852 -1.193414 4.5 0 4.5 
z
" style="stroke: #ffffff; stroke-width: 0.75"/>
    </defs>
    <g clip-path="url(#p81a88b6dec)">
     <use xlink:href="#m4dd2571fb1" x="108.625019" y="500.258744" style="fill: #fb9a99; stroke: #ffffff; stroke-width: 0.75"/>
     <use xlink:href="#m4dd2571fb1" x="232.479155" y="496.471028" style="fill: #fb9a99; stroke: #ffffff; stroke-width: 0.75"/>
     <use xlink:href="#m4dd2571fb1" x="356.333291" y="465.776178" style="fill: #fb9a99; stroke: #ffffff; stroke-width: 0.75"/>
     <use xlink:href="#m4dd2571fb1" x="480.187427" y="422.468531" style="fill: #fb9a99; stroke: #ffffff; stroke-width: 0.75"/>
     <use xlink:href="#m4dd2571fb1" x="604.041563" y="364.453496" style="fill: #fb9a99; stroke: #ffffff; stroke-width: 0.75"/>
     <use xlink:href="#m4dd2571fb1" x="727.895698" y="303.30188" style="fill: #fb9a99; stroke: #ffffff; stroke-width: 0.75"/>
     <use xlink:href="#m4dd2571fb1" x="851.749834" y="241.551531" style="fill: #fb9a99; stroke: #ffffff; stroke-width: 0.75"/>
     <use xlink:href="#m4dd2571fb1" x="975.60397" y="180.43448" style="fill: #fb9a99; stroke: #ffffff; stroke-width: 0.75"/>
     <use xlink:href="#m4dd2571fb1" x="1099.458106" y="119.134041" style="fill: #fb9a99; stroke: #ffffff; stroke-width: 0.75"/>
    </g>
   </g>
   <g id="line2d_6">
    <path d="M 108.625019 476.297223 
L 232.479155 459.391147 
L 356.333291 449.336321 
L 480.187427 423.920706 
L 604.041563 369.591401 
L 727.895698 309.108866 
L 851.749834 247.675089 
L 975.60397 186.36108 
L 1099.458106 124.872219 
" clip-path="url(#p81a88b6dec)" style="fill: none; stroke: #e31a1c; stroke-width: 2.25; stroke-linecap: round"/>
    <defs>
     <path id="m1dd19c0b8d" d="M 0 4.5 
C 1.193414 4.5 2.338109 4.025852 3.181981 3.181981 
C 4.025852 2.338109 4.5 1.193414 4.5 0 
C 4.5 -1.193414 4.025852 -2.338109 3.181981 -3.181981 
C 2.338109 -4.025852 1.193414 -4.5 0 -4.5 
C -1.193414 -4.5 -2.338109 -4.025852 -3.181981 -3.181981 
C -4.025852 -2.338109 -4.5 -1.193414 -4.5 0 
C -4.5 1.193414 -4.025852 2.338109 -3.181981 3.181981 
C -2.338109 4.025852 -1.193414 4.5 0 4.5 
z
" style="stroke: #ffffff; stroke-width: 0.75"/>
    </defs>
    <g clip-path="url(#p81a88b6dec)">
     <use xlink:href="#m1dd19c0b8d" x="108.625019" y="476.297223" style="fill: #e31a1c; stroke: #ffffff; stroke-width: 0.75"/>
     <use xlink:href="#m1dd19c0b8d" x="232.479155" y="459.391147" style="fill: #e31a1c; stroke: #ffffff; stroke-width: 0.75"/>
     <use xlink:href="#m1dd19c0b8d" x="356.333291" y="449.336321" style="fill: #e31a1c; stroke: #ffffff; stroke-width: 0.75"/>
     <use xlink:href="#m1dd19c0b8d" x="480.187427" y="423.920706" style="fill: #e31a1c; stroke: #ffffff; stroke-width: 0.75"/>
     <use xlink:href="#m1dd19c0b8d" x="604.041563" y="369.591401" style="fill: #e31a1c; stroke: #ffffff; stroke-width: 0.75"/>
     <use xlink:href="#m1dd19c0b8d" x="727.895698" y="309.108866" style="fill: #e31a1c; stroke: #ffffff; stroke-width: 0.75"/>
     <use xlink:href="#m1dd19c0b8d" x="851.749834" y="247.675089" style="fill: #e31a1c; stroke: #ffffff; stroke-width: 0.75"/>
     <use xlink:href="#m1dd19c0b8d" x="975.60397" y="186.36108" style="fill: #e31a1c; stroke: #ffffff; stroke-width: 0.75"/>
     <use xlink:href="#m1dd19c0b8d" x="1099.458106" y="124.872219" style="fill: #e31a1c; stroke: #ffffff; stroke-width: 0.75"/>
    </g>
   </g>
   <g id="line2d_7">
    <path d="M 108.625019 538.967682 
L 232.479155 333.275446 
L 356.333291 326.042635 
L 480.187427 311.43666 
L 604.041563 300.710922 
L 727.895698 287.873923 
L 851.749834 260.400163 
L 975.60397 211.281934 
L 1099.458106 151.767582 
" clip-path="url(#p81a88b6dec)" style="fill: none; stroke: #fdbf6f; stroke-width: 2.25; stroke-linecap: round"/>
    <defs>
     <path id="mf828c1e0ee" d="M 0 4.5 
C 1.193414 4.5 2.338109 4.025852 3.181981 3.181981 
C 4.025852 2.338109 4.5 1.193414 4.5 0 
C 4.5 -1.193414 4.025852 -2.338109 3.181981 -3.181981 
C 2.338109 -4.025852 1.193414 -4.5 0 -4.5 
C -1.193414 -4.5 -2.338109 -4.025852 -3.181981 -3.181981 
C -4.025852 -2.338109 -4.5 -1.193414 -4.5 0 
C -4.5 1.193414 -4.025852 2.338109 -3.181981 3.181981 
C -2.338109 4.025852 -1.193414 4.5 0 4.5 
z
" style="stroke: #ffffff; stroke-width: 0.75"/>
    </defs>
    <g clip-path="url(#p81a88b6dec)">
     <use xlink:href="#mf828c1e0ee" x="108.625019" y="538.967682" style="fill: #fdbf6f; stroke: #ffffff; stroke-width: 0.75"/>
     <use xlink:href="#mf828c1e0ee" x="232.479155" y="333.275446" style="fill: #fdbf6f; stroke: #ffffff; stroke-width: 0.75"/>
     <use xlink:href="#mf828c1e0ee" x="356.333291" y="326.042635" style="fill: #fdbf6f; stroke: #ffffff; stroke-width: 0.75"/>
     <use xlink:href="#mf828c1e0ee" x="480.187427" y="311.43666" style="fill: #fdbf6f; stroke: #ffffff; stroke-width: 0.75"/>
     <use xlink:href="#mf828c1e0ee" x="604.041563" y="300.710922" style="fill: #fdbf6f; stroke: #ffffff; stroke-width: 0.75"/>
     <use xlink:href="#mf828c1e0ee" x="727.895698" y="287.873923" style="fill: #fdbf6f; stroke: #ffffff; stroke-width: 0.75"/>
     <use xlink:href="#mf828c1e0ee" x="851.749834" y="260.400163" style="fill: #fdbf6f; stroke: #ffffff; stroke-width: 0.75"/>
     <use xlink:href="#mf828c1e0ee" x="975.60397" y="211.281934" style="fill: #fdbf6f; stroke: #ffffff; stroke-width: 0.75"/>
     <use xlink:href="#mf828c1e0ee" x="1099.458106" y="151.767582" style="fill: #fdbf6f; stroke: #ffffff; stroke-width: 0.75"/>
    </g>
   </g>
   <g id="line2d_8">
    <path d="M 108.625019 515.597311 
L 232.479155 333.564758 
L 356.333291 328.743154 
L 480.187427 313.880649 
L 604.041563 304.100035 
L 727.895698 291.577128 
L 851.749834 266.627472 
L 975.60397 212.71611 
L 1099.458106 154.027109 
" clip-path="url(#p81a88b6dec)" style="fill: none; stroke: #ff7f00; stroke-width: 2.25; stroke-linecap: round"/>
    <defs>
     <path id="m1b2e0e9f4b" d="M 0 4.5 
C 1.193414 4.5 2.338109 4.025852 3.181981 3.181981 
C 4.025852 2.338109 4.5 1.193414 4.5 0 
C 4.5 -1.193414 4.025852 -2.338109 3.181981 -3.181981 
C 2.338109 -4.025852 1.193414 -4.5 0 -4.5 
C -1.193414 -4.5 -2.338109 -4.025852 -3.181981 -3.181981 
C -4.025852 -2.338109 -4.5 -1.193414 -4.5 0 
C -4.5 1.193414 -4.025852 2.338109 -3.181981 3.181981 
C -2.338109 4.025852 -1.193414 4.5 0 4.5 
z
" style="stroke: #ffffff; stroke-width: 0.75"/>
    </defs>
    <g clip-path="url(#p81a88b6dec)">
     <use xlink:href="#m1b2e0e9f4b" x="108.625019" y="515.597311" style="fill: #ff7f00; stroke: #ffffff; stroke-width: 0.75"/>
     <use xlink:href="#m1b2e0e9f4b" x="232.479155" y="333.564758" style="fill: #ff7f00; stroke: #ffffff; stroke-width: 0.75"/>
     <use xlink:href="#m1b2e0e9f4b" x="356.333291" y="328.743154" style="fill: #ff7f00; stroke: #ffffff; stroke-width: 0.75"/>
     <use xlink:href="#m1b2e0e9f4b" x="480.187427" y="313.880649" style="fill: #ff7f00; stroke: #ffffff; stroke-width: 0.75"/>
     <use xlink:href="#m1b2e0e9f4b" x="604.041563" y="304.100035" style="fill: #ff7f00; stroke: #ffffff; stroke-width: 0.75"/>
     <use xlink:href="#m1b2e0e9f4b" x="727.895698" y="291.577128" style="fill: #ff7f00; stroke: #ffffff; stroke-width: 0.75"/>
     <use xlink:href="#m1b2e0e9f4b" x="851.749834" y="266.627472" style="fill: #ff7f00; stroke: #ffffff; stroke-width: 0.75"/>
     <use xlink:href="#m1b2e0e9f4b" x="975.60397" y="212.71611" style="fill: #ff7f00; stroke: #ffffff; stroke-width: 0.75"/>
     <use xlink:href="#m1b2e0e9f4b" x="1099.458106" y="154.027109" style="fill: #ff7f00; stroke: #ffffff; stroke-width: 0.75"/>
    </g>
   </g>
   <g id="line2d_9">
    <path d="M 108.625019 493.338785 
L 232.479155 348.338741 
L 356.333291 331.322128 
L 480.187427 316.078274 
L 604.041563 306.406615 
L 727.895698 294.550524 
L 851.749834 267.270165 
L 975.60397 212.419506 
L 1099.458106 154.03098 
" clip-path="url(#p81a88b6dec)" style="fill: none; stroke: #cab2d6; stroke-width: 2.25; stroke-linecap: round"/>
    <defs>
     <path id="mfdcd993938" d="M 0 4.5 
C 1.193414 4.5 2.338109 4.025852 3.181981 3.181981 
C 4.025852 2.338109 4.5 1.193414 4.5 0 
C 4.5 -1.193414 4.025852 -2.338109 3.181981 -3.181981 
C 2.338109 -4.025852 1.193414 -4.5 0 -4.5 
C -1.193414 -4.5 -2.338109 -4.025852 -3.181981 -3.181981 
C -4.025852 -2.338109 -4.5 -1.193414 -4.5 0 
C -4.5 1.193414 -4.025852 2.338109 -3.181981 3.181981 
C -2.338109 4.025852 -1.193414 4.5 0 4.5 
z
" style="stroke: #ffffff; stroke-width: 0.75"/>
    </defs>
    <g clip-path="url(#p81a88b6dec)">
     <use xlink:href="#mfdcd993938" x="108.625019" y="493.338785" style="fill: #cab2d6; stroke: #ffffff; stroke-width: 0.75"/>
     <use xlink:href="#mfdcd993938" x="232.479155" y="348.338741" style="fill: #cab2d6; stroke: #ffffff; stroke-width: 0.75"/>
     <use xlink:href="#mfdcd993938" x="356.333291" y="331.322128" style="fill: #cab2d6; stroke: #ffffff; stroke-width: 0.75"/>
     <use xlink:href="#mfdcd993938" x="480.187427" y="316.078274" style="fill: #cab2d6; stroke: #ffffff; stroke-width: 0.75"/>
     <use xlink:href="#mfdcd993938" x="604.041563" y="306.406615" style="fill: #cab2d6; stroke: #ffffff; stroke-width: 0.75"/>
     <use xlink:href="#mfdcd993938" x="727.895698" y="294.550524" style="fill: #cab2d6; stroke: #ffffff; stroke-width: 0.75"/>
     <use xlink:href="#mfdcd993938" x="851.749834" y="267.270165" style="fill: #cab2d6; stroke: #ffffff; stroke-width: 0.75"/>
     <use xlink:href="#mfdcd993938" x="975.60397" y="212.419506" style="fill: #cab2d6; stroke: #ffffff; stroke-width: 0.75"/>
     <use xlink:href="#mfdcd993938" x="1099.458106" y="154.03098" style="fill: #cab2d6; stroke: #ffffff; stroke-width: 0.75"/>
    </g>
   </g>
   <g id="line2d_10">
    <path d="M 108.625019 460.858908 
L 232.479155 453.11181 
L 356.333291 330.581666 
L 480.187427 318.579708 
L 604.041563 306.82318 
L 727.895698 295.565553 
L 851.749834 264.381838 
L 975.60397 209.874145 
L 1099.458106 154.012077 
" clip-path="url(#p81a88b6dec)" style="fill: none; stroke: #6a3d9a; stroke-width: 2.25; stroke-linecap: round"/>
    <defs>
     <path id="m95999d9db3" d="M 0 4.5 
C 1.193414 4.5 2.338109 4.025852 3.181981 3.181981 
C 4.025852 2.338109 4.5 1.193414 4.5 0 
C 4.5 -1.193414 4.025852 -2.338109 3.181981 -3.181981 
C 2.338109 -4.025852 1.193414 -4.5 0 -4.5 
C -1.193414 -4.5 -2.338109 -4.025852 -3.181981 -3.181981 
C -4.025852 -2.338109 -4.5 -1.193414 -4.5 0 
C -4.5 1.193414 -4.025852 2.338109 -3.181981 3.181981 
C -2.338109 4.025852 -1.193414 4.5 0 4.5 
z
" style="stroke: #ffffff; stroke-width: 0.75"/>
    </defs>
    <g clip-path="url(#p81a88b6dec)">
     <use xlink:href="#m95999d9db3" x="108.625019" y="460.858908" style="fill: #6a3d9a; stroke: #ffffff; stroke-width: 0.75"/>
     <use xlink:href="#m95999d9db3" x="232.479155" y="453.11181" style="fill: #6a3d9a; stroke: #ffffff; stroke-width: 0.75"/>
     <use xlink:href="#m95999d9db3" x="356.333291" y="330.581666" style="fill: #6a3d9a; stroke: #ffffff; stroke-width: 0.75"/>
     <use xlink:href="#m95999d9db3" x="480.187427" y="318.579708" style="fill: #6a3d9a; stroke: #ffffff; stroke-width: 0.75"/>
     <use xlink:href="#m95999d9db3" x="604.041563" y="306.82318" style="fill: #6a3d9a; stroke: #ffffff; stroke-width: 0.75"/>
     <use xlink:href="#m95999d9db3" x="727.895698" y="295.565553" style="fill: #6a3d9a; stroke: #ffffff; stroke-width: 0.75"/>
     <use xlink:href="#m95999d9db3" x="851.749834" y="264.381838" style="fill: #6a3d9a; stroke: #ffffff; stroke-width: 0.75"/>
     <use xlink:href="#m95999d9db3" x="975.60397" y="209.874145" style="fill: #6a3d9a; stroke: #ffffff; stroke-width: 0.75"/>
     <use xlink:href="#m95999d9db3" x="1099.458106" y="154.012077" style="fill: #6a3d9a; stroke: #ffffff; stroke-width: 0.75"/>
    </g>
   </g>
   <g id="line2d_11"/>
   <g id="line2d_12"/>
   <g id="line2d_13"/>
   <g id="line2d_14"/>
   <g id="line2d_15"/>
   <g id="line2d_16"/>
   <g id="line2d_17"/>
   <g id="line2d_18"/>
   <g id="line2d_19"/>
   <g id="line2d_20"/>
   <g id="patch_3">
    <path d="M 59.083365 594.894604 
L 59.083365 3.00024 
" style="fill: none; stroke: #262626; stroke-width: 1.875; stroke-linejoin: miter; stroke-linecap: square"/>
   </g>
   <g id="patch_4">
    <path d="M 59.083365 594.894604 
L 1148.99976 594.894604 
" style="fill: none; stroke: #262626; stroke-width: 1.875; stroke-linejoin: miter; stroke-linecap: square"/>
   </g>
   <g id="legend_1">
    <g id="patch_5">
     <path d="M 70.633365 285.203678 
L 199.119381 285.203678 
Q 202.419381 285.203678 202.419381 281.903678 
L 202.419381 14.55024 
Q 202.419381 11.25024 199.119381 11.25024 
L 70.633365 11.25024 
Q 67.333365 11.25024 67.333365 14.55024 
L 67.333365 281.903678 
Q 67.333365 285.203678 70.633365 285.203678 
z
" style="fill: #fafafa; opacity: 0.8; stroke: #cccccc; stroke-width: 1.5; stroke-linejoin: miter"/>
    </g>
    <g id="text_21">
     <!-- Version -->
     <g style="fill: #262626" transform="translate(106.509498 31.063365) scale(0.18 -0.18)">
      <defs>
       <path id="EquityBRegular-56" d="M 2381 986 
L 2278 986 
L 1248 4198 
L 1779 4294 
L 1779 4518 
L 128 4518 
L 128 4294 
L 627 4198 
L 1997 0 
L 2362 0 
L 3795 4198 
L 4275 4294 
L 4275 4518 
L 2880 4518 
L 2880 4294 
L 3482 4198 
L 2381 986 
z
" transform="scale(0.015625)"/>
       <path id="EquityBRegular-72" d="M 1632 2579 
C 1632 2355 1754 2227 1933 2227 
C 2138 2227 2259 2387 2259 2611 
C 2259 2867 2086 3014 1875 3014 
C 1619 3014 1414 2842 1146 2534 
L 1088 2560 
L 1043 3014 
L 896 3014 
L 128 2746 
L 128 2611 
L 544 2432 
L 544 288 
L 160 192 
L 160 0 
L 1568 0 
L 1568 192 
L 1062 288 
L 1062 2035 
C 1146 2221 1395 2528 1562 2637 
L 1632 2579 
z
" transform="scale(0.015625)"/>
      </defs>
      <use xlink:href="#EquityBRegular-56"/>
      <use xlink:href="#EquityBRegular-65" transform="translate(68.799988 0)"/>
      <use xlink:href="#EquityBRegular-72" transform="translate(113.599976 0)"/>
      <use xlink:href="#EquityBRegular-73" transform="translate(149.59996 0)"/>
      <use xlink:href="#EquityBRegular-69" transform="translate(188.299957 0)"/>
      <use xlink:href="#EquityBRegular-6f" transform="translate(213.799942 0)"/>
      <use xlink:href="#EquityBRegular-6e" transform="translate(263.09993 0)"/>
     </g>
    </g>
    <g id="line2d_21">
     <path d="M 73.933365 49.970396 
L 90.433365 49.970396 
L 106.933365 49.970396 
" style="fill: none; stroke: #a6cee3; stroke-width: 2.25; stroke-linecap: round"/>
     <g>
      <use xlink:href="#maa71798f11" x="90.433365" y="49.970396" style="fill: #a6cee3; stroke: #ffffff; stroke-width: 0.75"/>
     </g>
    </g>
    <g id="text_22">
     <!-- Seq -->
     <g style="fill: #262626" transform="translate(120.133365 55.745396) scale(0.165 -0.165)">
      <defs>
       <path id="EquityBRegular-53" d="M 275 45 
L 531 45 
L 845 173 
C 1082 32 1466 -77 1786 -77 
C 2592 -77 3219 371 3219 1216 
C 3219 1926 2765 2246 2029 2560 
C 1344 2854 966 3181 966 3610 
C 966 4064 1331 4301 1792 4301 
C 2278 4301 2758 3936 2989 3206 
L 3194 3206 
L 3066 4518 
L 2938 4518 
L 2669 4397 
C 2477 4474 2170 4595 1760 4595 
C 909 4595 403 3962 403 3418 
C 403 2771 794 2451 1690 2067 
C 2490 1728 2656 1382 2656 986 
C 2656 518 2291 211 1786 211 
C 1171 211 704 614 525 1402 
L 275 1402 
L 275 45 
z
" transform="scale(0.015625)"/>
       <path id="EquityBRegular-71" d="M 2246 550 
C 2125 378 1862 314 1715 314 
C 1210 314 768 710 768 1542 
C 768 2432 1261 2765 1606 2765 
C 1869 2765 2157 2624 2246 2323 
L 2246 550 
z
M 2246 154 
L 2246 -1248 
L 1741 -1344 
L 1741 -1536 
L 3136 -1536 
L 3136 -1344 
L 2765 -1248 
L 2765 2944 
L 2541 3014 
C 2432 2893 2310 2874 2208 2912 
C 2016 2970 1856 3014 1581 3014 
C 896 3014 218 2400 218 1389 
C 218 358 870 -77 1389 -77 
C 1632 -77 1888 -13 2182 154 
L 2246 154 
z
" transform="scale(0.015625)"/>
      </defs>
      <use xlink:href="#EquityBRegular-53"/>
      <use xlink:href="#EquityBRegular-65" transform="translate(54.599991 0)"/>
      <use xlink:href="#EquityBRegular-71" transform="translate(99.399979 0)"/>
     </g>
    </g>
    <g id="line2d_22">
     <path d="M 73.933365 74.292428 
L 90.433365 74.292428 
L 106.933365 74.292428 
" style="fill: none; stroke: #1f78b4; stroke-width: 2.25; stroke-linecap: round"/>
     <g>
      <use xlink:href="#m4f82fe1ad8" x="90.433365" y="74.292428" style="fill: #1f78b4; stroke: #ffffff; stroke-width: 0.75"/>
     </g>
    </g>
    <g id="text_23">
     <!-- Par -->
     <g style="fill: #262626" transform="translate(120.133365 80.067428) scale(0.165 -0.165)">
      <defs>
       <path id="EquityBRegular-50" d="M 1760 1984 
C 2771 1984 3379 2464 3379 3232 
C 3379 4166 2534 4518 1792 4518 
L 173 4518 
L 173 4294 
L 749 4198 
L 749 320 
L 173 224 
L 173 0 
L 2003 0 
L 2003 224 
L 1370 320 
L 1370 1984 
L 1760 1984 
z
M 1370 4186 
L 1792 4186 
C 2368 4186 2739 3923 2739 3194 
C 2739 2630 2330 2278 1850 2278 
L 1370 2278 
L 1370 4186 
z
" transform="scale(0.015625)"/>
      </defs>
      <use xlink:href="#EquityBRegular-50"/>
      <use xlink:href="#EquityBRegular-61" transform="translate(56.299988 0)"/>
      <use xlink:href="#EquityBRegular-72" transform="translate(99.399979 0)"/>
     </g>
    </g>
    <g id="line2d_23">
     <path d="M 73.933365 98.614459 
L 90.433365 98.614459 
L 106.933365 98.614459 
" style="fill: none; stroke: #b2df8a; stroke-width: 2.25; stroke-linecap: round"/>
     <g>
      <use xlink:href="#m9abaa9a00d" x="90.433365" y="98.614459" style="fill: #b2df8a; stroke: #ffffff; stroke-width: 0.75"/>
     </g>
    </g>
    <g id="text_24">
     <!-- SeqSimd8 -->
     <g style="fill: #262626" transform="translate(120.133365 104.389459) scale(0.165 -0.165)">
      <defs>
       <path id="EquityBRegular-64" d="M 2272 608 
C 2131 480 1875 320 1594 320 
C 1222 320 755 742 755 1542 
C 755 2432 1286 2746 1632 2746 
C 1894 2746 2144 2605 2272 2426 
L 2272 608 
z
M 2790 4698 
L 2637 4698 
L 1837 4429 
L 1837 4294 
L 2272 4109 
L 2272 2912 
C 2118 2957 1882 3014 1594 3014 
C 902 3014 218 2400 218 1389 
C 218 358 864 -77 1299 -77 
C 1626 -77 1901 6 2195 224 
L 2253 224 
L 2413 -77 
L 2566 -77 
L 3162 115 
L 3162 288 
L 2790 467 
L 2790 4698 
z
" transform="scale(0.015625)"/>
      </defs>
      <use xlink:href="#EquityBRegular-53"/>
      <use xlink:href="#EquityBRegular-65" transform="translate(54.599991 0)"/>
      <use xlink:href="#EquityBRegular-71" transform="translate(99.399979 0)"/>
      <use xlink:href="#EquityBRegular-53" transform="translate(148.899963 0)"/>
      <use xlink:href="#EquityBRegular-69" transform="translate(203.499954 0)"/>
      <use xlink:href="#EquityBRegular-6d" transform="translate(228.999939 0)"/>
      <use xlink:href="#EquityBRegular-64" transform="translate(307.899933 0)"/>
      <use xlink:href="#EquityBRegular-38" transform="translate(359.799927 0)"/>
     </g>
    </g>
    <g id="line2d_24">
     <path d="M 73.933365 122.93649 
L 90.433365 122.93649 
L 106.933365 122.93649 
" style="fill: none; stroke: #33a02c; stroke-width: 2.25; stroke-linecap: round"/>
     <g>
      <use xlink:href="#m45ffbfe875" x="90.433365" y="122.93649" style="fill: #33a02c; stroke: #ffffff; stroke-width: 0.75"/>
     </g>
    </g>
    <g id="text_25">
     <!-- SeqSimd16 -->
     <g style="fill: #262626" transform="translate(120.133365 128.71149) scale(0.165 -0.165)">
      <use xlink:href="#EquityBRegular-53"/>
      <use xlink:href="#EquityBRegular-65" transform="translate(54.599991 0)"/>
      <use xlink:href="#EquityBRegular-71" transform="translate(99.399979 0)"/>
      <use xlink:href="#EquityBRegular-53" transform="translate(148.899963 0)"/>
      <use xlink:href="#EquityBRegular-69" transform="translate(203.499954 0)"/>
      <use xlink:href="#EquityBRegular-6d" transform="translate(228.999939 0)"/>
      <use xlink:href="#EquityBRegular-64" transform="translate(307.899933 0)"/>
      <use xlink:href="#EquityBRegular-31" transform="translate(359.799927 0)"/>
      <use xlink:href="#EquityBRegular-36" transform="translate(400.499924 0)"/>
     </g>
    </g>
    <g id="line2d_25">
     <path d="M 73.933365 147.258521 
L 90.433365 147.258521 
L 106.933365 147.258521 
" style="fill: none; stroke: #fb9a99; stroke-width: 2.25; stroke-linecap: round"/>
     <g>
      <use xlink:href="#m4dd2571fb1" x="90.433365" y="147.258521" style="fill: #fb9a99; stroke: #ffffff; stroke-width: 0.75"/>
     </g>
    </g>
    <g id="text_26">
     <!-- SeqSimd32 -->
     <g style="fill: #262626" transform="translate(120.133365 153.033521) scale(0.165 -0.165)">
      <use xlink:href="#EquityBRegular-53"/>
      <use xlink:href="#EquityBRegular-65" transform="translate(54.599991 0)"/>
      <use xlink:href="#EquityBRegular-71" transform="translate(99.399979 0)"/>
      <use xlink:href="#EquityBRegular-53" transform="translate(148.899963 0)"/>
      <use xlink:href="#EquityBRegular-69" transform="translate(203.499954 0)"/>
      <use xlink:href="#EquityBRegular-6d" transform="translate(228.999939 0)"/>
      <use xlink:href="#EquityBRegular-64" transform="translate(307.899933 0)"/>
      <use xlink:href="#EquityBRegular-33" transform="translate(359.799927 0)"/>
      <use xlink:href="#EquityBRegular-32" transform="translate(405.099915 0)"/>
     </g>
    </g>
    <g id="line2d_26">
     <path d="M 73.933365 171.580553 
L 90.433365 171.580553 
L 106.933365 171.580553 
" style="fill: none; stroke: #e31a1c; stroke-width: 2.25; stroke-linecap: round"/>
     <g>
      <use xlink:href="#m1dd19c0b8d" x="90.433365" y="171.580553" style="fill: #e31a1c; stroke: #ffffff; stroke-width: 0.75"/>
     </g>
    </g>
    <g id="text_27">
     <!-- SeqSimd64 -->
     <g style="fill: #262626" transform="translate(120.133365 177.355553) scale(0.165 -0.165)">
      <use xlink:href="#EquityBRegular-53"/>
      <use xlink:href="#EquityBRegular-65" transform="translate(54.599991 0)"/>
      <use xlink:href="#EquityBRegular-71" transform="translate(99.399979 0)"/>
      <use xlink:href="#EquityBRegular-53" transform="translate(148.899963 0)"/>
      <use xlink:href="#EquityBRegular-69" transform="translate(203.499954 0)"/>
      <use xlink:href="#EquityBRegular-6d" transform="translate(228.999939 0)"/>
      <use xlink:href="#EquityBRegular-64" transform="translate(307.899933 0)"/>
      <use xlink:href="#EquityBRegular-36" transform="translate(359.799927 0)"/>
      <use xlink:href="#EquityBRegular-34" transform="translate(408.299911 0)"/>
     </g>
    </g>
    <g id="line2d_27">
     <path d="M 73.933365 195.902584 
L 90.433365 195.902584 
L 106.933365 195.902584 
" style="fill: none; stroke: #fdbf6f; stroke-width: 2.25; stroke-linecap: round"/>
     <g>
      <use xlink:href="#mf828c1e0ee" x="90.433365" y="195.902584" style="fill: #fdbf6f; stroke: #ffffff; stroke-width: 0.75"/>
     </g>
    </g>
    <g id="text_28">
     <!-- ParSimd8 -->
     <g style="fill: #262626" transform="translate(120.133365 201.677584) scale(0.165 -0.165)">
      <use xlink:href="#EquityBRegular-50"/>
      <use xlink:href="#EquityBRegular-61" transform="translate(56.299988 0)"/>
      <use xlink:href="#EquityBRegular-72" transform="translate(99.399979 0)"/>
      <use xlink:href="#EquityBRegular-53" transform="translate(135.399963 0)"/>
      <use xlink:href="#EquityBRegular-69" transform="translate(189.999954 0)"/>
      <use xlink:href="#EquityBRegular-6d" transform="translate(215.499939 0)"/>
      <use xlink:href="#EquityBRegular-64" transform="translate(294.399933 0)"/>
      <use xlink:href="#EquityBRegular-38" transform="translate(346.299927 0)"/>
     </g>
    </g>
    <g id="line2d_28">
     <path d="M 73.933365 220.224615 
L 90.433365 220.224615 
L 106.933365 220.224615 
" style="fill: none; stroke: #ff7f00; stroke-width: 2.25; stroke-linecap: round"/>
     <g>
      <use xlink:href="#m1b2e0e9f4b" x="90.433365" y="220.224615" style="fill: #ff7f00; stroke: #ffffff; stroke-width: 0.75"/>
     </g>
    </g>
    <g id="text_29">
     <!-- ParSimd16 -->
     <g style="fill: #262626" transform="translate(120.133365 225.999615) scale(0.165 -0.165)">
      <use xlink:href="#EquityBRegular-50"/>
      <use xlink:href="#EquityBRegular-61" transform="translate(56.299988 0)"/>
      <use xlink:href="#EquityBRegular-72" transform="translate(99.399979 0)"/>
      <use xlink:href="#EquityBRegular-53" transform="translate(135.399963 0)"/>
      <use xlink:href="#EquityBRegular-69" transform="translate(189.999954 0)"/>
      <use xlink:href="#EquityBRegular-6d" transform="translate(215.499939 0)"/>
      <use xlink:href="#EquityBRegular-64" transform="translate(294.399933 0)"/>
      <use xlink:href="#EquityBRegular-31" transform="translate(346.299927 0)"/>
      <use xlink:href="#EquityBRegular-36" transform="translate(386.999924 0)"/>
     </g>
    </g>
    <g id="line2d_29">
     <path d="M 73.933365 244.546646 
L 90.433365 244.546646 
L 106.933365 244.546646 
" style="fill: none; stroke: #cab2d6; stroke-width: 2.25; stroke-linecap: round"/>
     <g>
      <use xlink:href="#mfdcd993938" x="90.433365" y="244.546646" style="fill: #cab2d6; stroke: #ffffff; stroke-width: 0.75"/>
     </g>
    </g>
    <g id="text_30">
     <!-- ParSimd32 -->
     <g style="fill: #262626" transform="translate(120.133365 250.321646) scale(0.165 -0.165)">
      <use xlink:href="#EquityBRegular-50"/>
      <use xlink:href="#EquityBRegular-61" transform="translate(56.299988 0)"/>
      <use xlink:href="#EquityBRegular-72" transform="translate(99.399979 0)"/>
      <use xlink:href="#EquityBRegular-53" transform="translate(135.399963 0)"/>
      <use xlink:href="#EquityBRegular-69" transform="translate(189.999954 0)"/>
      <use xlink:href="#EquityBRegular-6d" transform="translate(215.499939 0)"/>
      <use xlink:href="#EquityBRegular-64" transform="translate(294.399933 0)"/>
      <use xlink:href="#EquityBRegular-33" transform="translate(346.299927 0)"/>
      <use xlink:href="#EquityBRegular-32" transform="translate(391.599915 0)"/>
     </g>
    </g>
    <g id="line2d_30">
     <path d="M 73.933365 268.868678 
L 90.433365 268.868678 
L 106.933365 268.868678 
" style="fill: none; stroke: #6a3d9a; stroke-width: 2.25; stroke-linecap: round"/>
     <g>
      <use xlink:href="#m95999d9db3" x="90.433365" y="268.868678" style="fill: #6a3d9a; stroke: #ffffff; stroke-width: 0.75"/>
     </g>
    </g>
    <g id="text_31">
     <!-- ParSimd64 -->
     <g style="fill: #262626" transform="translate(120.133365 274.643678) scale(0.165 -0.165)">
      <use xlink:href="#EquityBRegular-50"/>
      <use xlink:href="#EquityBRegular-61" transform="translate(56.299988 0)"/>
      <use xlink:href="#EquityBRegular-72" transform="translate(99.399979 0)"/>
      <use xlink:href="#EquityBRegular-53" transform="translate(135.399963 0)"/>
      <use xlink:href="#EquityBRegular-69" transform="translate(189.999954 0)"/>
      <use xlink:href="#EquityBRegular-6d" transform="translate(215.499939 0)"/>
      <use xlink:href="#EquityBRegular-64" transform="translate(294.399933 0)"/>
      <use xlink:href="#EquityBRegular-36" transform="translate(346.299927 0)"/>
      <use xlink:href="#EquityBRegular-34" transform="translate(394.799911 0)"/>
     </g>
    </g>
   </g>
  </g>
 </g>
 <defs>
  <clipPath id="p81a88b6dec">
   <rect x="59.083365" y="3.00024" width="1089.916395" height="591.894364"/>
  </clipPath>
 </defs>
</svg>
